<svg viewBox="0 0 800 800" xmlns="http://www.w3.org/2000/svg"><path d="M740.4575655601224,187.69988887447067 L724.068373961439,213.74811609190516 M724.068373961439,213.74811609190516 L707.5283668850108,239.65709375599283 M707.5283668850108,239.65709375599283 L627.5491466354019,271.84079746623445 M627.5491466354019,271.84079746623445 L548.4385005937617,305.84873997839225 M548.4385005937617,305.84873997839225 L494.24207891578646,329.59898112406677 M494.24207891578646,329.59898112406677 L455.0910191278583,346.9972574854229 M455.0910191278583,346.9972574854229 L419.6905954404883,363.4333599801388 M419.6905954404883,363.4333599801388 L389.2779478450811,378.72630125780915 M389.2779478450811,378.72630125780915 L364.0077645943568,392.80362848127936 M364.0077645943568,392.80362848127936 L338.87234602962263,408.4982109791621 M338.87234602962263,408.4982109791621 L314.03205859764245,425.8401535336817 M314.03205859764245,425.8401535336817 L285.9660631705377,447.24972475179584 M285.9660631705377,447.24972475179584 L183.80234247660078,528.8288319944627 M183.80234247660078,528.8288319944627 L135.8631087573308,567.6826153584929 M135.8631087573308,567.6826153584929 L82.75870436268292,611.9341912083751 M59.83605364644632,603.9378457935095 L82.75870436268292,611.9341912083751 M59.54243443987764,602.7190694139967 L59.83605364644632,603.9378457935095 M740.4575655601224,187.69988887447067 L647.0501956514711,231.20487074321068 M647.0501956514711,231.20487074321068 L587.403341889234,259.6845362920635 M587.403341889234,259.6845362920635 L528.1056125188825,287.9422587112005 M528.1056125188825,287.9422587112005 L468.128149959898,315.9359148922812 M468.128149959898,315.9359148922812 L426.56615739479224,335.6113610588121 M426.56615739479224,335.6113610588121 L392.6670424090556,352.7927958244893 M392.6670424090556,352.7927958244893 L365.6419892131333,367.957219239968 M365.6419892131333,367.957219239968 L339.36234693468435,384.5366591046163 M339.36234693468435,384.5366591046163 L313.86281616780616,402.56546299188176 M313.86281616780616,402.56546299188176 L285.5559824324884,424.352946769763 M285.5559824324884,424.352946769763 L247.15257051111007,454.89768873348294 M247.15257051111007,454.89768873348294 L187.73300094145327,500.7329542904623 M187.73300094145327,500.7329542904623 L123.23597722512932,550.9295085571791 M123.23597722512932,550.9295085571791 L59.54243443987764,602.7190694139967" stroke="black"  stroke-width="4"  fill="red"/>
<path d="M707.5283668850108,239.65709375599283 L693.5602526180526,254.17452720222445 M693.5602526180526,254.17452720222445 L679.1206598184164,267.45622270542873 M679.1206598184164,267.45622270542873 L658.8723010613052,284.1877717248206 M658.8723010613052,284.1877717248206 L633.0819232601004,303.5425744719689 M633.0819232601004,303.5425744719689 L615.9468329737899,315.65537625340176 M615.9468329737899,315.65537625340176 L598.7632454577533,327.41040692424633 M598.7632454577533,327.41040692424633 L574.8858386739699,343.2871001710856 M574.8858386739699,343.2871001710856 L550.9590352482759,358.8100739549468 M550.9590352482759,358.8100739549468 L486.4718957924018,399.23088148288446 M486.4718957924018,399.23088148288446 L413.8620238681258,442.7145527787899 M413.8620238681258,442.7145527787899 L322.6553400540899,495.24945452197016 M322.6553400540899,495.24945452197016 L263.92062485945576,528.5861261453459 M263.92062485945576,528.5861261453459 L205.02232452197714,561.7257541573723 M205.02232452197714,561.7257541573723 L162.23413487453814,584.6872579635932 M162.23413487453814,584.6872579635932 L136.70299528452057,597.1795444190219 M136.70299528452057,597.1795444190219 L118.70815681825582,604.8414238814369 M118.70815681825582,604.8414238814369 L102.68676370383855,610.1088667848662 M102.68676370383855,610.1088667848662 L92.41078870751971,612.0454759683573 M92.41078870751971,612.0454759683573 L87.47403465896036,612.3001111255294 M87.47403465896036,612.3001111255294 L82.75870436268292,611.9341912083751 M707.5283668850108,239.65709375599283 L627.5491466354019,271.84079746623445 M627.5491466354019,271.84079746623445 L548.4385005937617,305.84873997839225 M548.4385005937617,305.84873997839225 L494.24207891578646,329.59898112406677 M494.24207891578646,329.59898112406677 L455.0910191278583,346.9972574854229 M455.0910191278583,346.9972574854229 L419.6905954404883,363.4333599801388 M419.6905954404883,363.4333599801388 L389.2779478450811,378.72630125780915 M389.2779478450811,378.72630125780915 L364.0077645943568,392.80362848127936 M364.0077645943568,392.80362848127936 L338.87234602962263,408.4982109791621 M338.87234602962263,408.4982109791621 L314.03205859764245,425.8401535336817 M314.03205859764245,425.8401535336817 L285.9660631705377,447.24972475179584 M285.9660631705377,447.24972475179584 L183.80234247660078,528.8288319944627 M183.80234247660078,528.8288319944627 L135.8631087573308,567.6826153584929 M135.8631087573308,567.6826153584929 L82.75870436268292,611.9341912083751" stroke="black"  stroke-width="4"  fill="red"/>
<path d="M740.4575655601224,187.69988887447067 L724.068373961439,213.74811609190516 M724.068373961439,213.74811609190516 L707.5283668850108,239.65709375599283 M707.5283668850108,239.65709375599283 L660.2310384838745,290.8304936572255 M660.2310384838745,290.8304936572255 L611.1726900559977,342.41974589893016 M611.1726900559977,342.41974589893016 L576.0068936612762,377.3718722194992 M576.0068936612762,377.3718722194992 L549.2140781510682,402.081234630176 M549.2140781510682,402.081234630176 L522.9359426177788,423.94767605991956 M522.9359426177788,423.94767605991956 L497.6569669146978,442.3354114930776 M497.6569669146978,442.3354114930776 L473.7733600210016,457.3024713513481 M473.7733600210016,457.3024713513481 L446.5854480957067,471.8695670062541 M446.5854480957067,471.8695670062541 L416.03584759473375,485.93061767114284 M416.03584759473375,485.93061767114284 L377.8513409177881,501.46295473955934 M377.8513409177881,501.46295473955934 L231.05056466479402,556.8668346854645 M231.05056466479402,556.8668346854645 L161.49321042165067,582.9335136273613 M161.49321042165067,582.9335136273613 L82.75870436268292,611.9341912083751 M59.83605364644632,603.9378457935095 L82.75870436268292,611.9341912083751 M60.005985550180185,602.9957991309583 L59.83605364644632,603.9378457935095 M740.4575655601224,187.69988887447067 L683.5610217734752,252.37425843400592 M683.5610217734752,252.37425843400592 L645.3365413087206,293.3618174032236 M645.3365413087206,293.3618174032236 L605.8744618070898,333.2665249433868 M605.8744618070898,333.2665249433868 L564.4650667577841,372.2265438610576 M564.4650667577841,372.2265438610576 L533.7367828800863,398.3448042180419 M533.7367828800863,398.3448042180419 L505.9343553286892,419.1952818162347 M505.9343553286892,419.1952818162347 L480.8375231774047,435.5755878937787 M480.8375231774047,435.5755878937787 L452.9645812771378,451.3068357118997 M452.9645812771378,451.3068357118997 L422.22457851535466,466.34124567838137 M422.22457851535466,466.34124567838137 L384.4518869365347,482.6488026335062 M384.4518869365347,482.6488026335062 L330.15357452292676,503.9299526024763 M330.15357452292676,503.9299526024763 L246.00881932812112,535.2723321828389 M246.00881932812112,535.2723321828389 L153.64317503982468,569.0162013169423 M153.64317503982468,569.0162013169423 L60.005985550180185,602.9957991309583" stroke="black"  stroke-width="4"  fill="red"/>
<path d="M707.5283668850108,239.65709375599283 L693.5602526180526,254.17452720222445 M693.5602526180526,254.17452720222445 L679.1206598184164,267.45622270542873 M679.1206598184164,267.45622270542873 L658.8723010613052,284.1877717248206 M658.8723010613052,284.1877717248206 L633.0819232601004,303.5425744719689 M633.0819232601004,303.5425744719689 L615.9468329737899,315.65537625340176 M615.9468329737899,315.65537625340176 L598.7632454577533,327.41040692424633 M598.7632454577533,327.41040692424633 L574.8858386739699,343.2871001710856 M574.8858386739699,343.2871001710856 L550.9590352482759,358.8100739549468 M550.9590352482759,358.8100739549468 L486.4718957924018,399.23088148288446 M486.4718957924018,399.23088148288446 L413.8620238681258,442.7145527787899 M413.8620238681258,442.7145527787899 L322.6553400540899,495.24945452197016 M322.6553400540899,495.24945452197016 L263.92062485945576,528.5861261453459 M263.92062485945576,528.5861261453459 L205.02232452197714,561.7257541573723 M205.02232452197714,561.7257541573723 L162.23413487453814,584.6872579635932 M162.23413487453814,584.6872579635932 L136.70299528452057,597.1795444190219 M136.70299528452057,597.1795444190219 L118.70815681825582,604.8414238814369 M118.70815681825582,604.8414238814369 L102.68676370383855,610.1088667848662 M102.68676370383855,610.1088667848662 L92.41078870751971,612.0454759683573 M92.41078870751971,612.0454759683573 L87.47403465896036,612.3001111255294 M87.47403465896036,612.3001111255294 L82.75870436268292,611.9341912083751 M707.5283668850108,239.65709375599283 L660.2310384838745,290.8304936572255 M660.2310384838745,290.8304936572255 L611.1726900559977,342.41974589893016 M611.1726900559977,342.41974589893016 L576.0068936612762,377.3718722194992 M576.0068936612762,377.3718722194992 L549.2140781510682,402.081234630176 M549.2140781510682,402.081234630176 L522.9359426177788,423.94767605991956 M522.9359426177788,423.94767605991956 L497.6569669146978,442.3354114930776 M497.6569669146978,442.3354114930776 L473.7733600210016,457.3024713513481 M473.7733600210016,457.3024713513481 L446.5854480957067,471.8695670062541 M446.5854480957067,471.8695670062541 L416.03584759473375,485.93061767114284 M416.03584759473375,485.93061767114284 L377.8513409177881,501.46295473955934 M377.8513409177881,501.46295473955934 L231.05056466479402,556.8668346854645 M231.05056466479402,556.8668346854645 L161.49321042165067,582.9335136273613 M161.49321042165067,582.9335136273613 L82.75870436268292,611.9341912083751" stroke="black"  stroke-width="4"  fill="red"/></svg>