<svg viewBox="0 0 800 800" xmlns="http://www.w3.org/2000/svg"><path d="M740.460582003841,183.53661751278315 L727.9680092497122,205.94879637082948 M727.9680092497122,205.94879637082948 L719.6588778330123,219.67267028011946 M719.6588778330123,219.67267028011946 L711.0290238598047,233.17275872304128 M711.0290238598047,233.17275872304128 L676.9681938211552,247.42695420851146 M676.9681938211552,247.42695420851146 L613.7598591535843,275.3895839654563 M613.7598591535843,275.3895839654563 L554.4044382501535,300.69749558667377 M554.4044382501535,300.69749558667377 L498.12815726975,324.1515007469035 M498.12815726975,324.1515007469035 L455.7951947650387,342.4290177038812 M455.7951947650387,342.4290177038812 L421.27816295844036,358.43930284113674 M421.27816295844036,358.43930284113674 L392.18551417603703,373.17442727147557 M392.18551417603703,373.17442727147557 L366.0719822744895,387.7155091435568 M366.0719822744895,387.7155091435568 L339.06493202353573,404.38532381924324 M339.06493202353573,404.38532381924324 L312.9136055018383,422.3437722663242 M312.9136055018383,422.3437722663242 L285.97357960118404,442.744879282904 M285.97357960118404,442.744879282904 L254.68469106725155,468.31504502932796 M254.68469106725155,468.31504502932796 L201.46618482061749,512.3257023142646 M201.46618482061749,512.3257023142646 L167.8914266966621,537.9920243746451 M167.8914266966621,537.9920243746451 L116.33138544342,575.0122876032166 M116.33138544342,575.0122876032166 L95.31076042302482,591.1915354642332 M95.31076042302482,591.1915354642332 L82.53212895685647,602.4866058866652 M82.53212895685647,602.4866058866652 L71.26925611535216,614.5602814727488 M59.83244109089253,600.0054333711283 L71.26925611535216,614.5602814727488 M59.539417996159045,598.7891313768336 L59.83244109089253,600.0054333711283 M740.460582003841,183.53661751278315 L716.3276050621523,193.4226828422593 M716.3276050621523,193.4226828422593 L686.0400171944414,207.9066362037342 M686.0400171944414,207.9066362037342 L617.729725176687,242.97174654117418 M617.729725176687,242.97174654117418 L571.7923525949311,265.19712077108034 M571.7923525949311,265.19712077108034 L505.952927184715,294.88412067207537 M505.952927184715,294.88412067207537 L466.8796959928618,312.3578134381585 M466.8796959928618,312.3578134381585 L427.9499214763947,330.6522833851311 M427.9499214763947,330.6522833851311 L396.5703089585356,346.6694818690298 M396.5703089585356,346.6694818690298 L368.94009795309705,362.1600643868959 M368.94009795309705,362.1600643868959 L340.68560635084265,379.72233941527395 M340.68560635084265,379.72233941527395 L313.5926436244885,398.4490433349756 M313.5926436244885,398.4490433349756 L285.9947723459609,419.425929238021 M285.9947723459609,419.425929238021 L254.71906375162172,444.90622972679716 M254.71906375162172,444.90622972679716 L206.65568370643462,484.1403530948471 M206.65568370643462,484.1403530948471 L170.35293123199588,511.0924343302031 M170.35293123199588,511.0924343302031 L132.17616001653346,536.8888068228017 M132.17616001653346,536.8888068228017 L105.22688948935865,555.1606455003136 M105.22688948935865,555.1606455003136 L87.51784936996751,568.5884558265899 M87.51784936996751,568.5884558265899 L73.72203325077311,581.1322105270715 M73.72203325077311,581.1322105270715 L66.16233076241275,589.5855311873547 M66.16233076241275,589.5855311873547 L59.539417996159045,598.7891313768336" stroke="black"  stroke-width="4"  fill="red"/>
<path d="M711.0290238598047,233.17275872304128 L697.9569972847823,246.42782073679814 M697.9569972847823,246.42782073679814 L679.9747782136371,262.53275983174774 M679.9747782136371,262.53275983174774 L656.660459294801,281.4169702210385 M656.660459294801,281.4169702210385 L626.7630351459428,303.6743987566308 M626.7630351459428,303.6743987566308 L608.0875768672136,316.8183616487074 M608.0875768672136,316.8183616487074 L589.3596945048259,329.5760561914278 M589.3596945048259,329.5760561914278 L565.1675085122775,345.5805949982322 M565.1675085122775,345.5805949982322 L540.9246171820166,361.20684599867513 M540.9246171820166,361.20684599867513 L478.1115357963063,400.29276188541667 M478.1115357963063,400.29276188541667 L402.9410879190385,445.08395200758116 M402.9410879190385,445.08395200758116 L311.6440245206789,497.58311039981777 M311.6440245206789,497.58311039981777 L263.6321715701712,524.7469364189841 M263.6321715701712,524.7469364189841 L215.5111264905182,551.6688131696525 M215.5111264905182,551.6688131696525 L159.21583801890736,582.1975863417646 M159.21583801890736,582.1975863417646 L121.40899600941987,601.4602620458917 M121.40899600941987,601.4602620458917 L100.13902495155526,611.020528149685 M100.13902495155526,611.020528149685 L88.33988079432407,615.0793112524328 M88.33988079432407,615.0793112524328 L80.8791061084084,616.4633824872169 M80.8791061084084,616.4633824872169 L75.73715628588343,616.2645919270286 M75.73715628588343,616.2645919270286 L71.26925611535216,614.5602814727488 M711.0290238598047,233.17275872304128 L676.9681938211552,247.42695420851146 M676.9681938211552,247.42695420851146 L613.7598591535843,275.3895839654563 M613.7598591535843,275.3895839654563 L554.4044382501535,300.69749558667377 M554.4044382501535,300.69749558667377 L498.12815726975,324.1515007469035 M498.12815726975,324.1515007469035 L455.7951947650387,342.4290177038812 M455.7951947650387,342.4290177038812 L421.27816295844036,358.43930284113674 M421.27816295844036,358.43930284113674 L392.18551417603703,373.17442727147557 M392.18551417603703,373.17442727147557 L366.0719822744895,387.7155091435568 M366.0719822744895,387.7155091435568 L339.06493202353573,404.38532381924324 M339.06493202353573,404.38532381924324 L312.9136055018383,422.3437722663242 M312.9136055018383,422.3437722663242 L285.97357960118404,442.744879282904 M285.97357960118404,442.744879282904 L254.68469106725155,468.31504502932796 M254.68469106725155,468.31504502932796 L201.46618482061749,512.3257023142646 M201.46618482061749,512.3257023142646 L167.8914266966621,537.9920243746451 M167.8914266966621,537.9920243746451 L116.33138544342,575.0122876032166 M116.33138544342,575.0122876032166 L95.31076042302482,591.1915354642332 M95.31076042302482,591.1915354642332 L82.53212895685647,602.4866058866652 M82.53212895685647,602.4866058866652 L71.26925611535216,614.5602814727488" stroke="black"  stroke-width="4"  fill="red"/>
<path d="M740.460582003841,183.53661751278315 L727.9680092497122,205.94879637082948 M727.9680092497122,205.94879637082948 L719.6588778330123,219.67267028011946 M719.6588778330123,219.67267028011946 L711.0290238598047,233.17275872304128 M711.0290238598047,233.17275872304128 L689.8623419488406,254.9035429558113 M689.8623419488406,254.9035429558113 L649.2447956745181,296.01994481132715 M649.2447956745181,296.01994481132715 L612.7281986624373,334.6892453937288 M612.7281986624373,334.6892453937288 L578.0821855812648,370.8571128169849 M578.0821855812648,370.8571128169849 L549.9992868627724,397.55581733340193 M549.9992868627724,397.55581733340193 L524.4605044450254,418.9094983826776 M524.4605044450254,418.9094983826776 L500.20045493073405,436.55904191795537 M500.20045493073405,436.55904191795537 L475.63392894461845,452.08637987514476 M475.63392894461845,452.08637987514476 L446.84286629893717,467.7921698812262 M446.84286629893717,467.7921698812262 L415.25275732056826,482.6328482879694 M415.25275732056826,482.6328482879694 L378.8681724671921,497.55100882159684 M378.8681724671921,497.55100882159684 L332.8418175740005,514.5090662824838 M332.8418175740005,514.5090662824838 L253.4410475799209,543.1393623893044 M253.4410475799209,543.1393623893044 L207.4481430584175,561.4869273360639 M207.4481430584175,561.4869273360639 L141.6980808143971,590.1203485425563 M141.6980808143971,590.1203485425563 L113.00952244714858,601.7449369830722 M113.00952244714858,601.7449369830722 L92.8975075816303,608.6719972645618 M92.8975075816303,608.6719972645618 L71.26925611534932,614.5602814727472 M59.83244109089253,600.0054333711283 L71.26925611534932,614.5602814727472 M60.002027995332185,599.0652992713539 L59.83244109089253,600.0054333711283 M740.460582003841,183.53661751278315 L727.5953775440742,199.93564541135697 M727.5953775440742,199.93564541135697 L708.7158209295523,221.03089375149403 M708.7158209295523,221.03089375149403 L662.452786974677,268.93598884283637 M662.452786974677,268.93598884283637 L632.2506624390138,300.3670845192247 M632.2506624390138,300.3670845192247 L589.9611358742304,343.8900759306979 M589.9611358742304,343.8900759306979 L563.7324872713273,368.94990230754036 M563.7324872713273,368.94990230754036 L535.1905948538684,393.4194912340961 M535.1905948538684,393.4194912340961 L509.4041406809122,412.80327737338087 M509.4041406809122,412.80327737338087 L483.8833704867037,429.6175545392931 M483.8833704867037,429.6175545392931 L454.38966520965164,446.545705673852 M454.38966520965164,446.545705673852 L422.402801035254,462.4867950687117 M422.402801035254,462.4867950687117 L386.00461316927925,478.37387262667744 M386.00461316927925,478.37387262667744 L341.0300100959353,495.87087331094006 M341.0300100959353,495.87087331094006 L270.02236144822325,521.6600512948344 M270.02236144822325,521.6600512948344 L219.88347702037993,540.4775013565669 M219.88347702037993,540.4775013565669 L171.15982931432728,560.0622483929085 M171.15982931432728,560.0622483929085 L136.9020244333293,574.0158108448774 M136.9020244333293,574.0158108448774 L112.34316521079569,583.3805123946872 M112.34316521079569,583.3805123946872 L90.0955189668997,590.8964898584807 M90.0955189668997,590.8964898584807 L75.51353161923026,595.1650190428251 M75.51353161923026,595.1650190428251 L60.002027995332185,599.0652992713539" stroke="black"  stroke-width="4"  fill="red"/>
<path d="M711.0290238598047,233.17275872304128 L697.9569972847823,246.42782073679814 M697.9569972847823,246.42782073679814 L679.9747782136371,262.53275983174774 M679.9747782136371,262.53275983174774 L656.660459294801,281.4169702210385 M656.660459294801,281.4169702210385 L626.7630351459428,303.6743987566308 M626.7630351459428,303.6743987566308 L608.0875768672136,316.8183616487074 M608.0875768672136,316.8183616487074 L589.3596945048259,329.5760561914278 M589.3596945048259,329.5760561914278 L565.1675085122775,345.5805949982322 M565.1675085122775,345.5805949982322 L540.9246171820166,361.20684599867513 M540.9246171820166,361.20684599867513 L478.1115357963063,400.29276188541667 M478.1115357963063,400.29276188541667 L402.9410879190385,445.08395200758116 M402.9410879190385,445.08395200758116 L311.6440245206789,497.58311039981777 M311.6440245206789,497.58311039981777 L263.6321715701712,524.7469364189841 M263.6321715701712,524.7469364189841 L215.5111264905182,551.6688131696525 M215.5111264905182,551.6688131696525 L159.21583801890736,582.1975863417646 M159.21583801890736,582.1975863417646 L121.40899600941987,601.4602620458917 M121.40899600941987,601.4602620458917 L100.13902495155526,611.020528149685 M100.13902495155526,611.020528149685 L88.33988079432407,615.0793112524328 M88.33988079432407,615.0793112524328 L80.8791061084084,616.4633824872169 M80.8791061084084,616.4633824872169 L75.73715628588343,616.2645919270286 M75.73715628588343,616.2645919270286 L71.26925611534932,614.5602814727472 M711.0290238598047,233.17275872304128 L689.8623419488406,254.9035429558113 M689.8623419488406,254.9035429558113 L649.2447956745181,296.01994481132715 M649.2447956745181,296.01994481132715 L612.7281986624373,334.6892453937288 M612.7281986624373,334.6892453937288 L578.0821855812648,370.8571128169849 M578.0821855812648,370.8571128169849 L549.9992868627724,397.55581733340193 M549.9992868627724,397.55581733340193 L524.4605044450254,418.9094983826776 M524.4605044450254,418.9094983826776 L500.20045493073405,436.55904191795537 M500.20045493073405,436.55904191795537 L475.63392894461845,452.08637987514476 M475.63392894461845,452.08637987514476 L446.84286629893717,467.7921698812262 M446.84286629893717,467.7921698812262 L415.25275732056826,482.6328482879694 M415.25275732056826,482.6328482879694 L378.8681724671921,497.55100882159684 M378.8681724671921,497.55100882159684 L332.8418175740005,514.5090662824838 M332.8418175740005,514.5090662824838 L253.4410475799209,543.1393623893044 M253.4410475799209,543.1393623893044 L207.4481430584175,561.4869273360639 M207.4481430584175,561.4869273360639 L141.6980808143971,590.1203485425563 M141.6980808143971,590.1203485425563 L113.00952244714858,601.7449369830722 M113.00952244714858,601.7449369830722 L92.8975075816303,608.6719972645618 M92.8975075816303,608.6719972645618 L71.26925611534932,614.5602814727472" stroke="black"  stroke-width="4"  fill="red"/></svg>